<svg width="29" height="33" viewBox="0 0 29 33" fill="none" xmlns="http://www.w3.org/2000/svg">
<path d="M22.8333 10.8C22.8333 8.4661 21.9554 6.22778 20.3926 4.57746C18.8298 2.92714 16.7101 2 14.5 2C12.2899 2 10.1702 2.92714 8.60744 4.57746C7.04464 6.22778 6.16667 8.4661 6.16667 10.8C6.16667 21.0667 2 24 2 24H27C27 24 22.8333 21.0667 22.8333 10.8Z" stroke="#4F4789" stroke-width="3.66667" stroke-linecap="round" stroke-linejoin="round"/>
<path d="M17 29C16.7459 29.6083 16.3813 30.1132 15.9425 30.4642C15.5038 30.8153 15.0063 31 14.5 31C13.9937 31 13.4962 30.8153 13.0575 30.4642C12.6187 30.1132 12.2541 29.6083 12 29" stroke="#4F4789" stroke-width="3.66667" stroke-linecap="round" stroke-linejoin="round"/>
</svg>
