<svg width="34" height="39" viewBox="0 0 34 39" fill="none" xmlns="http://www.w3.org/2000/svg">
<path d="M27.3623 12.5019C27.3623 9.71661 26.2935 7.04542 24.3909 5.07593C22.4884 3.10645 19.908 2 17.2174 2C14.5268 2 11.9464 3.10645 10.0438 5.07593C8.1413 7.04542 7.07246 9.71661 7.07246 12.5019C7.07246 24.7541 2 28.2547 2 28.2547H32.4348C32.4348 28.2547 27.3623 24.7541 27.3623 12.5019Z" stroke="white" stroke-width="2.67" stroke-linecap="round" stroke-linejoin="round"/>
<path d="M20.1427 35.2559C19.8455 35.7863 19.4188 36.2267 18.9054 36.5328C18.3921 36.8389 17.81 37 17.2176 37C16.6252 37 16.0431 36.8389 15.5298 36.5328C15.0164 36.2267 14.5897 35.7863 14.2925 35.2559" stroke="white" stroke-width="2.67" stroke-linecap="round" stroke-linejoin="round"/>
</svg>
