<svg width="400" height="401" viewBox="0 0 400 401" fill="none" xmlns="http://www.w3.org/2000/svg">
<path fill-rule="evenodd" clip-rule="evenodd" d="M93.5002 222.409C90.815 219.263 86.0814 218.888 82.9275 221.572C79.7735 224.255 79.3935 228.981 82.0787 232.127C84.7639 235.273 89.4975 235.648 92.6514 232.965C95.8054 230.281 96.1854 225.555 93.5002 222.409Z" fill="#FF784F"/>
<path fill-rule="evenodd" clip-rule="evenodd" d="M262.976 60.9993C260.179 57.7221 255.249 57.3316 251.963 60.127C248.678 62.9224 248.282 67.8452 251.079 71.1223C253.876 74.3995 258.807 74.79 262.092 71.9946C265.378 69.1992 265.773 64.2765 262.976 60.9993Z" fill="#4F4789"/>
<path fill-rule="evenodd" clip-rule="evenodd" d="M275.121 189.767L275.728 180.852L284.639 181.668L284.033 190.583L275.121 189.767Z" fill="#4F4789"/>
<path fill-rule="evenodd" clip-rule="evenodd" d="M71.7062 161.262L72.3122 152.347L81.2241 153.163L80.6181 162.078L71.7062 161.262Z" fill="#4F4789"/>
<path fill-rule="evenodd" clip-rule="evenodd" d="M194.725 26.2705L195.331 17.3555L204.242 18.1721L203.636 27.087L194.725 26.2705Z" fill="#4F4789"/>
<path fill-rule="evenodd" clip-rule="evenodd" d="M176.406 91.4331L177.012 82.5181L185.924 83.3347L185.318 92.2496L176.406 91.4331Z" fill="#FF784F"/>
<path fill-rule="evenodd" clip-rule="evenodd" d="M226.832 165.913L227.186 161.515L231.591 161.864L231.237 166.262L226.832 165.913Z" fill="#FF784F"/>
<path fill-rule="evenodd" clip-rule="evenodd" d="M228.423 115.803L228.777 111.405L233.182 111.754L232.828 116.152L228.423 115.803Z" fill="#4F4789"/>
<path fill-rule="evenodd" clip-rule="evenodd" d="M119.217 164.472L119.571 160.074L123.976 160.422L123.623 164.821L119.217 164.472Z" fill="#4F4789"/>
<path fill-rule="evenodd" clip-rule="evenodd" d="M121.031 199.803L121.385 195.405L125.79 195.754L125.437 200.152L121.031 199.803Z" fill="#FF784F"/>
<path fill-rule="evenodd" clip-rule="evenodd" d="M185.123 160.84L185.477 156.442L189.882 156.791L189.528 161.189L185.123 160.84Z" fill="#4F4789"/>
<path fill-rule="evenodd" clip-rule="evenodd" d="M163.216 204.473L163.57 200.075L167.975 200.423L167.621 204.822L163.216 204.473Z" fill="#4F4789"/>
<path fill-rule="evenodd" clip-rule="evenodd" d="M163.445 44.4854L163.799 40.0872L168.204 40.4361L167.851 44.8343L163.445 44.4854Z" fill="#4F4789"/>
<path fill-rule="evenodd" clip-rule="evenodd" d="M146.4 317.114L146.754 312.716L151.159 313.065L150.805 317.463L146.4 317.114Z" fill="#F5F9E9"/>
<path fill-rule="evenodd" clip-rule="evenodd" d="M270.989 323.336L273.074 318.227L278.189 320.304L276.104 325.413L270.989 323.336Z" fill="#FF784F"/>
<path fill-rule="evenodd" clip-rule="evenodd" d="M106.715 274.467C104.981 272.435 101.924 272.193 99.8869 273.926C97.85 275.659 97.6046 278.711 99.3387 280.743C101.073 282.775 104.13 283.017 106.167 281.284C108.204 279.551 108.449 276.498 106.715 274.467Z" fill="#4F4789"/>
<path fill-rule="evenodd" clip-rule="evenodd" d="M211.292 332.987L211.898 324.072L220.81 324.888L220.204 333.803L211.292 332.987Z" fill="#4F4789"/>
<path fill-rule="evenodd" clip-rule="evenodd" d="M180.013 351.203L180.367 346.805L184.772 347.153L184.418 351.552L180.013 351.203Z" fill="#4F4789"/>
<path fill-rule="evenodd" clip-rule="evenodd" d="M140.094 277L140.448 272.601L144.853 272.95L144.499 277.348L140.094 277Z" fill="#FF784F"/>
<path fill-rule="evenodd" clip-rule="evenodd" d="M128.711 328.443L130.796 323.334L135.911 325.411L133.826 330.52L128.711 328.443Z" fill="#4F4789"/>
<path fill-rule="evenodd" clip-rule="evenodd" d="M194.725 26.2705L195.331 17.3555L204.242 18.1721L203.636 27.087L194.725 26.2705Z" fill="#4F4789"/>
<path fill-rule="evenodd" clip-rule="evenodd" d="M176.406 91.4331L177.012 82.5181L185.924 83.3347L185.318 92.2496L176.406 91.4331Z" fill="#FF784F"/>
<path fill-rule="evenodd" clip-rule="evenodd" d="M163.445 44.4854L163.799 40.0872L168.204 40.4361L167.851 44.8343L163.445 44.4854Z" fill="#4F4789"/>
<g clip-path="url(#clip0_47_1280)">
<path d="M251.037 174.071C238.217 187.435 219.29 203.24 197.003 218.559C174.978 233.7 153.661 245.624 136.651 252.857C128.299 246.09 121.563 237.553 116.935 227.928C115.532 225.007 114.321 221.987 113.322 218.885C109.938 208.411 108.924 197.013 110.811 185.417C117.199 146.162 154.411 119.537 193.928 125.948C206.635 128.01 218.032 133.236 227.436 140.686C229.98 142.7 232.378 144.876 234.614 147.199C241.97 154.822 247.605 164 251.037 174.071Z" fill="url(#paint0_linear_47_1280)"/>
<path d="M253.91 208.634C247.521 247.889 210.309 274.514 170.793 268.102C161.823 266.647 153.504 263.615 146.081 259.337C142.751 257.419 139.6 255.25 136.651 252.857C153.661 245.624 174.978 233.7 197.003 218.559C219.29 203.24 238.217 187.435 251.037 174.071C252.248 177.627 253.186 181.295 253.829 185.043C255.132 192.651 255.218 200.595 253.91 208.634Z" fill="url(#paint1_linear_47_1280)"/>
<path d="M253.83 185.044C239.51 198.245 221.778 212.365 201.844 226.067C182.368 239.454 163.255 250.747 146.081 259.338C111.866 276.449 85.343 282.832 78.9535 273.667C72.7766 264.805 86.9208 243.573 113.323 218.885C114.322 221.987 115.532 225.007 116.935 227.928C103.863 241.752 97.5129 252.84 101.017 257.867C104.641 263.066 118.08 260.756 136.652 252.858C153.662 245.625 174.978 233.7 197.003 218.559C219.291 203.24 238.218 187.435 251.037 174.071C264.716 159.809 271.436 148.33 267.853 143.188C264.388 138.218 251.941 140.114 234.614 147.199C232.378 144.876 229.98 142.7 227.436 140.686C259.42 125.282 283.881 119.855 289.981 128.608C296.295 137.667 281.374 159.655 253.83 185.044Z" fill="#5A4056"/>
</g>
<defs>
<linearGradient id="paint0_linear_47_1280" x1="111.58" y1="180.688" x2="246.389" y2="202.627" gradientUnits="userSpaceOnUse">
<stop offset="0.19" stop-color="#FF7117"/>
<stop offset="1" stop-color="#922EFF"/>
</linearGradient>
<linearGradient id="paint1_linear_47_1280" x1="118.811" y1="207.133" x2="245.401" y2="226.359" gradientUnits="userSpaceOnUse">
<stop stop-color="#FF7117"/>
<stop offset="0.1" stop-color="#F86C25"/>
<stop offset="0.3" stop-color="#E5614C"/>
<stop offset="0.56" stop-color="#C84F8B"/>
<stop offset="0.89" stop-color="#A036E0"/>
<stop offset="1" stop-color="#922EFF"/>
</linearGradient>
<clipPath id="clip0_47_1280">
<rect width="189.804" height="182.328" fill="white" transform="matrix(0.987093 0.160148 -0.160632 0.987014 105.432 95.9585)"/>
</clipPath>
</defs>
</svg>
