<svg width="36" height="36" viewBox="0 0 36 36" fill="none" xmlns="http://www.w3.org/2000/svg">
<path d="M31.2601 6.915C30.4939 6.14851 29.5843 5.54047 28.5831 5.12563C27.5819 4.71078 26.5088 4.49726 25.4251 4.49726C24.3413 4.49726 23.2682 4.71078 22.267 5.12563C21.2658 5.54047 20.3562 6.14851 19.5901 6.915L18.0001 8.505L16.4101 6.915C14.8625 5.36746 12.7636 4.49806 10.5751 4.49806C8.38651 4.49806 6.28759 5.36746 4.74006 6.915C3.19252 8.46254 2.32312 10.5614 2.32312 12.75C2.32312 14.9385 3.19252 17.0375 4.74006 18.585L6.33006 20.175L18.0001 31.845L29.6701 20.175L31.2601 18.585C32.0265 17.8189 32.6346 16.9092 33.0494 15.908C33.4643 14.9068 33.6778 13.8337 33.6778 12.75C33.6778 11.6663 33.4643 10.5932 33.0494 9.59197C32.6346 8.59078 32.0265 7.68113 31.2601 6.915Z" stroke="black" stroke-width="3" stroke-linecap="round" stroke-linejoin="round"/>
</svg>
