<svg width="21" height="20" viewBox="0 0 21 20" fill="none" xmlns="http://www.w3.org/2000/svg">
<g clip-path="url(#clip0_23_1057)">
<path d="M17.3682 3.84172C16.9426 3.41589 16.4372 3.0781 15.881 2.84763C15.3248 2.61716 14.7286 2.49854 14.1265 2.49854C13.5245 2.49854 12.9283 2.61716 12.3721 2.84763C11.8158 3.0781 11.3105 3.41589 10.8849 3.84172L10.0015 4.72506L9.11819 3.84172C8.25845 2.98198 7.09238 2.49898 5.87652 2.49898C4.66066 2.49898 3.4946 2.98198 2.63486 3.84172C1.77511 4.70147 1.29211 5.86753 1.29211 7.08339C1.29211 8.29925 1.77511 9.46531 2.63486 10.3251L3.51819 11.2084L10.0015 17.6917L16.4849 11.2084L17.3682 10.3251C17.794 9.89943 18.1318 9.39407 18.3623 8.83785C18.5928 8.28164 18.7114 7.68546 18.7114 7.08339C18.7114 6.48132 18.5928 5.88514 18.3623 5.32893C18.1318 4.77271 17.794 4.26735 17.3682 3.84172Z" stroke="#FF0000" stroke-width="2" stroke-linecap="round" stroke-linejoin="round"/>
</g>
<defs>
<clipPath id="clip0_23_1057">
<rect width="20" height="20" fill="white" transform="translate(0.00146484)"/>
</clipPath>
</defs>
</svg>
