<svg width="212" height="54" viewBox="0 0 212 54" fill="none" xmlns="http://www.w3.org/2000/svg">
<path d="M27.632 45.46C25.256 46.736 22.396 47.748 18.612 47.748C9.504 47.748 1.716 40.928 1.716 30.588C1.716 20.248 9.504 13.428 18.612 13.428C22.396 13.428 25.3 14.44 27.632 15.672V22.8C24.992 21.04 22.616 20.072 19.36 20.072C13.772 20.072 8.976 24.208 8.976 30.588C8.976 36.924 13.772 41.148 19.36 41.148C22.616 41.148 24.992 40.048 27.632 38.244V45.46ZM32.5545 47V11.668H39.5945V47H32.5545ZM54.9911 47.616C49.4911 47.616 44.1671 42.512 44.1671 34.9C44.1671 27.112 49.4911 22.008 54.9911 22.008C58.6431 22.008 61.3711 23.856 62.9551 26.364H62.9991L63.7031 22.624H69.6431V47H63.7031L62.9991 43.26H62.9551C61.3711 45.812 58.6431 47.616 54.9911 47.616ZM51.2511 34.812C51.2511 38.552 53.7151 41.28 57.0591 41.28C60.3151 41.28 62.7351 38.596 62.7351 34.812C62.7351 31.028 60.3151 28.344 57.0591 28.344C53.7151 28.344 51.2511 31.116 51.2511 34.812ZM84.5433 22.008C87.4033 22.008 90.3513 22.712 92.2433 23.9V29.884C90.5273 28.696 87.5793 27.728 84.8073 27.728C82.6073 27.728 81.3753 28.476 81.3753 29.664C81.3753 30.984 82.7833 31.512 85.5553 32.26C89.5593 33.228 93.8273 34.592 93.8273 39.74C93.8273 44.536 90.0433 47.616 83.4433 47.616C79.9233 47.616 76.8873 46.736 74.7313 45.328V38.86C76.7993 40.532 79.5713 41.896 83.1353 41.896C85.5993 41.896 87.0073 41.104 87.0073 39.784C87.0073 38.288 85.2473 37.804 82.0793 36.924C78.2073 35.824 74.5993 34.24 74.5993 29.796C74.5993 25.308 78.2513 22.008 84.5433 22.008ZM107.403 22.008C110.263 22.008 113.211 22.712 115.103 23.9V29.884C113.387 28.696 110.439 27.728 107.667 27.728C105.467 27.728 104.235 28.476 104.235 29.664C104.235 30.984 105.643 31.512 108.415 32.26C112.419 33.228 116.687 34.592 116.687 39.74C116.687 44.536 112.903 47.616 106.303 47.616C102.783 47.616 99.7466 46.736 97.5906 45.328V38.86C99.6586 40.532 102.431 41.896 105.995 41.896C108.459 41.896 109.867 41.104 109.867 39.784C109.867 38.288 108.107 37.804 104.939 36.924C101.067 35.824 97.4586 34.24 97.4586 29.796C97.4586 25.308 101.111 22.008 107.403 22.008ZM121.814 47V14.176H128.986V40.488H142.582V47H121.814ZM146.465 47V22.624H153.505V47H146.465ZM146.113 15.452C146.113 13.34 147.785 11.668 149.985 11.668C152.097 11.668 153.813 13.34 153.813 15.452C153.813 17.608 152.097 19.28 149.985 19.28C147.785 19.28 146.113 17.608 146.113 15.452ZM173.037 22.008C178.317 22.008 181.573 25.264 181.573 30.72V47H174.533V32.744C174.533 29.752 173.213 28.388 170.661 28.388C168.153 28.388 166.437 30.148 166.437 32.568V47H159.397V22.624H164.853L165.557 26.056H165.689C167.141 23.768 169.693 22.008 173.037 22.008ZM211.441 22.624L201.937 34.24L211.749 47H203.125L194.281 35.208V47H187.241V11.668H194.281V33.756L203.125 22.624H211.441Z" fill="black"/>
<path d="M30.0039 46.8999L30.4852 47.7765L31.0039 47.4917V46.8999H30.0039ZM30.0039 17.1559H31.0039V16.5642L30.4852 16.2794L30.0039 17.1559ZM30.0039 23.3599L29.4525 24.1942L31.0039 25.2197V23.3599H30.0039ZM30.0039 40.6079H31.0039V38.7482L29.4525 39.7737L30.0039 40.6079ZM29.5226 46.0234C27.4019 47.1877 24.7061 48.1439 21.1159 48.1439V50.1439C25.0937 50.1439 28.1179 49.0762 30.4852 47.7765L29.5226 46.0234ZM21.1159 48.1439C12.756 48.1439 5.43991 41.8358 5.43991 32.0279H3.43991C3.43991 42.9881 11.6998 50.1439 21.1159 50.1439V48.1439ZM5.43991 32.0279C5.43991 22.2201 12.756 15.9119 21.1159 15.9119V13.9119C11.6998 13.9119 3.43991 21.0678 3.43991 32.0279H5.43991ZM21.1159 15.9119C24.7061 15.9119 27.4019 16.8682 29.5226 18.0325L30.4852 16.2794C28.1179 14.9797 25.0937 13.9119 21.1159 13.9119V15.9119ZM29.0039 17.1559V23.3599H31.0039V17.1559H29.0039ZM30.5553 22.5257C27.8399 20.7307 25.2309 19.6759 21.6879 19.6759V21.6759C24.7449 21.6759 26.976 22.5571 29.4525 24.1942L30.5553 22.5257ZM21.6879 19.6759C15.3978 19.6759 9.73191 24.4538 9.73191 32.0279H11.7319C11.7319 25.6101 16.45 21.6759 21.6879 21.6759V19.6759ZM9.73191 32.0279C9.73191 39.5503 15.3899 44.4239 21.6879 44.4239V42.4239C16.4579 42.4239 11.7319 38.4096 11.7319 32.0279H9.73191ZM21.6879 44.4239C25.2566 44.4239 27.8692 43.2177 30.5553 41.4422L29.4525 39.7737C26.9466 41.4301 24.7192 42.4239 21.6879 42.4239V44.4239ZM29.0039 40.6079V46.8999H31.0039V40.6079H29.0039ZM35.2794 48.4399H34.2794V49.4399H35.2794V48.4399ZM35.2794 13.1519V12.1519H34.2794V13.1519H35.2794ZM41.3514 13.1519H42.3514V12.1519H41.3514V13.1519ZM41.3514 48.4399V49.4399H42.3514V48.4399H41.3514ZM36.2794 48.4399V13.1519H34.2794V48.4399H36.2794ZM35.2794 14.1519H41.3514V12.1519H35.2794V14.1519ZM40.3514 13.1519V48.4399H42.3514V13.1519H40.3514ZM41.3514 47.4399H35.2794V49.4399H41.3514V47.4399ZM65.3383 28.1999L64.482 28.7164L64.7737 29.1999H65.3383V28.1999ZM65.3823 28.1999V29.1999H66.2388L66.3704 28.3536L65.3823 28.1999ZM65.9983 24.2399V23.2399H65.1418L65.0102 24.0862L65.9983 24.2399ZM71.1023 24.2399H72.1023V23.2399H71.1023V24.2399ZM71.1023 48.4399V49.4399H72.1023V48.4399H71.1023ZM65.9983 48.4399L65.0102 48.5936L65.1418 49.4399H65.9983V48.4399ZM65.3823 44.4799L66.3704 44.3262L66.2388 43.4799H65.3823V44.4799ZM65.3383 44.4799V43.4799H64.7737L64.482 43.9634L65.3383 44.4799ZM57.1983 48.0559C52.3366 48.0559 47.3743 43.5338 47.3743 36.3839H45.3743C45.3743 44.4581 51.06 50.0559 57.1983 50.0559V48.0559ZM47.3743 36.3839C47.3743 29.1461 52.3366 24.6679 57.1983 24.6679V22.6679C51.06 22.6679 45.3743 28.2218 45.3743 36.3839H47.3743ZM57.1983 24.6679C60.406 24.6679 62.988 26.2395 64.482 28.7164L66.1946 27.6834C64.3447 24.6164 61.1186 22.6679 57.1983 22.6679V24.6679ZM65.3383 29.1999H65.3823V27.1999H65.3383V29.1999ZM66.3704 28.3536L66.9864 24.3936L65.0102 24.0862L64.3942 28.0462L66.3704 28.3536ZM65.9983 25.2399H71.1023V23.2399H65.9983V25.2399ZM70.1023 24.2399V48.4399H72.1023V24.2399H70.1023ZM71.1023 47.4399H65.9983V49.4399H71.1023V47.4399ZM66.9864 48.2862L66.3704 44.3262L64.3942 44.6336L65.0102 48.5936L66.9864 48.2862ZM65.3823 43.4799H65.3383V45.4799H65.3823V43.4799ZM64.482 43.9634C62.9832 46.4484 60.397 48.0559 57.1983 48.0559V50.0559C61.1277 50.0559 64.3495 48.0555 66.1946 44.9964L64.482 43.9634ZM51.4903 36.3399C51.4903 40.9662 54.5657 44.5119 58.8703 44.5119V42.5119C55.8709 42.5119 53.4903 40.0736 53.4903 36.3399H51.4903ZM58.8703 44.5119C63.1003 44.5119 66.1183 40.9952 66.1183 36.3399H64.1183C64.1183 40.1327 61.7683 42.5119 58.8703 42.5119V44.5119ZM66.1183 36.3399C66.1183 31.6847 63.1003 28.1679 58.8703 28.1679V30.1679C61.7683 30.1679 64.1183 32.5472 64.1183 36.3399H66.1183ZM58.8703 28.1679C54.5657 28.1679 51.4903 31.7136 51.4903 36.3399H53.4903C53.4903 32.6062 55.8709 30.1679 58.8703 30.1679V28.1679ZM93.5337 25.6039H94.5337V25.0651L94.0837 24.7688L93.5337 25.6039ZM93.5337 30.9279L92.937 31.7304L94.5337 32.9177V30.9279H93.5337ZM86.9337 34.0079L86.6743 34.9737L86.6809 34.9754L86.9337 34.0079ZM76.5937 46.5919H75.5937V47.1066L76.0125 47.4057L76.5937 46.5919ZM76.5937 40.8279L77.2581 40.0805L75.5937 38.6011V40.8279H76.5937ZM83.9857 38.1439L84.2707 37.1854L84.2634 37.1832L84.2562 37.1812L83.9857 38.1439ZM86.0097 24.6679C88.6884 24.6679 91.3856 25.3867 92.9837 26.4391L94.0837 24.7688C92.0738 23.4452 88.963 22.6679 86.0097 22.6679V24.6679ZM92.5337 25.6039V30.9279H94.5337V25.6039H92.5337ZM94.1304 30.1255C92.2283 28.711 89.199 27.6839 86.2297 27.6839V29.6839C88.8044 29.6839 91.4072 30.5928 92.937 31.7304L94.1304 30.1255ZM86.2297 27.6839C84.8939 27.6839 83.7245 27.931 82.8553 28.4835C81.9402 29.0651 81.4017 29.9659 81.4017 31.0599H83.4017C83.4017 30.702 83.5452 30.4148 83.9281 30.1714C84.3569 29.8989 85.1015 29.6839 86.2297 29.6839V27.6839ZM81.4017 31.0599C81.4017 31.6305 81.5529 32.1563 81.8678 32.6204C82.1728 33.0698 82.5952 33.4083 83.0587 33.6784C83.9565 34.2016 85.2188 34.5827 86.6743 34.9737L87.1932 33.0422C85.7006 32.6412 84.6969 32.3183 84.0657 31.9504C83.7647 31.775 83.6068 31.6213 83.5227 31.4973C83.4486 31.3881 83.4017 31.2594 83.4017 31.0599H81.4017ZM86.6809 34.9754C88.6355 35.4863 90.487 36.0335 91.8583 36.9983C93.1527 37.909 94.0297 39.1978 94.0297 41.3559H96.0297C96.0297 38.4981 94.7947 36.6189 93.0091 35.3626C91.3005 34.1604 89.1039 33.5416 87.1866 33.0404L86.6809 34.9754ZM94.0297 41.3559C94.0297 43.4017 93.2416 45.0304 91.8018 46.1711C90.3359 47.3323 88.1042 48.0559 85.1297 48.0559V50.0559C88.4033 50.0559 91.1215 49.2616 93.0437 47.7388C94.9918 46.1955 96.0297 43.9742 96.0297 41.3559H94.0297ZM85.1297 48.0559C81.9149 48.0559 79.1347 47.1781 77.175 45.7782L76.0125 47.4057C78.3647 49.0858 81.5686 50.0559 85.1297 50.0559V48.0559ZM77.5937 46.5919V40.8279H75.5937V46.5919H77.5937ZM75.9294 41.5754C78.0598 43.469 81.0604 44.9959 84.8657 44.9959V42.9959C81.6311 42.9959 79.0877 41.7068 77.2581 40.0805L75.9294 41.5754ZM84.8657 44.9959C86.3324 44.9959 87.6074 44.7272 88.5504 44.1414C89.5375 43.5282 90.1337 42.5745 90.1337 41.3999H88.1337C88.1337 41.8094 87.96 42.1537 87.495 42.4425C86.9861 42.7587 86.127 42.9959 84.8657 42.9959V44.9959ZM90.1337 41.3999C90.1337 40.7689 89.9538 40.2012 89.5925 39.7105C89.2459 39.2397 88.7708 38.8915 88.2584 38.6129C87.2644 38.0724 85.8563 37.6568 84.2707 37.1854L83.7007 39.1025C85.3711 39.5991 86.5371 39.9535 87.303 40.37C87.6707 40.5699 87.872 40.7469 87.9819 40.8962C88.0772 41.0256 88.1337 41.173 88.1337 41.3999H90.1337ZM84.2562 37.1812C82.3047 36.6331 80.6002 36.0244 79.3848 35.0947C78.2332 34.2137 77.5057 33.036 77.5057 31.1919H75.5057C75.5057 33.7039 76.5603 35.4521 78.1697 36.6832C79.7152 37.8655 81.7507 38.5548 83.7153 39.1067L84.2562 37.1812ZM77.5057 31.1919C77.5057 29.3084 78.2663 27.7135 79.6635 26.5704C81.0767 25.4141 83.2103 24.6679 86.0097 24.6679V22.6679C82.8691 22.6679 80.2508 23.5057 78.397 25.0225C76.5272 26.5523 75.5057 28.7194 75.5057 31.1919H77.5057ZM116.006 25.6039H117.006V25.0651L116.556 24.7688L116.006 25.6039ZM116.006 30.9279L115.41 31.7304L117.006 32.9177V30.9279H116.006ZM109.406 34.0079L109.147 34.9737L109.154 34.9754L109.406 34.0079ZM99.0664 46.5919H98.0664V47.1066L98.4851 47.4057L99.0664 46.5919ZM99.0664 40.8279L99.7307 40.0805L98.0664 38.6011V40.8279H99.0664ZM106.458 38.1439L106.743 37.1854L106.736 37.1832L106.729 37.1812L106.458 38.1439ZM108.482 24.6679C111.161 24.6679 113.858 25.3867 115.456 26.4391L116.556 24.7688C114.546 23.4452 111.436 22.6679 108.482 22.6679V24.6679ZM115.006 25.6039V30.9279H117.006V25.6039H115.006ZM116.603 30.1255C114.701 28.711 111.672 27.6839 108.702 27.6839V29.6839C111.277 29.6839 113.88 30.5928 115.41 31.7304L116.603 30.1255ZM108.702 27.6839C107.367 27.6839 106.197 27.931 105.328 28.4835C104.413 29.0651 103.874 29.9659 103.874 31.0599H105.874C105.874 30.702 106.018 30.4148 106.401 30.1714C106.83 29.8989 107.574 29.6839 108.702 29.6839V27.6839ZM103.874 31.0599C103.874 31.6305 104.026 32.1563 104.34 32.6204C104.645 33.0698 105.068 33.4083 105.531 33.6784C106.429 34.2016 107.691 34.5827 109.147 34.9737L109.666 33.0422C108.173 32.6412 107.17 32.3183 106.538 31.9504C106.237 31.775 106.08 31.6213 105.995 31.4973C105.921 31.3881 105.874 31.2594 105.874 31.0599H103.874ZM109.154 34.9754C111.108 35.4863 112.96 36.0335 114.331 36.9983C115.625 37.909 116.502 39.1978 116.502 41.3559H118.502C118.502 38.4981 117.267 36.6189 115.482 35.3626C113.773 34.1604 111.577 33.5416 109.659 33.0404L109.154 34.9754ZM116.502 41.3559C116.502 43.4017 115.714 45.0304 114.274 46.1711C112.809 47.3323 110.577 48.0559 107.602 48.0559V50.0559C110.876 50.0559 113.594 49.2616 115.516 47.7388C117.464 46.1955 118.502 43.9742 118.502 41.3559H116.502ZM107.602 48.0559C104.388 48.0559 101.607 47.1781 99.6476 45.7782L98.4851 47.4057C100.837 49.0858 104.041 50.0559 107.602 50.0559V48.0559ZM100.066 46.5919V40.8279H98.0664V46.5919H100.066ZM98.402 41.5754C100.532 43.469 103.533 44.9959 107.338 44.9959V42.9959C104.104 42.9959 101.56 41.7068 99.7307 40.0805L98.402 41.5754ZM107.338 44.9959C108.805 44.9959 110.08 44.7272 111.023 44.1414C112.01 43.5282 112.606 42.5745 112.606 41.3999H110.606C110.606 41.8094 110.433 42.1537 109.968 42.4425C109.459 42.7587 108.6 42.9959 107.338 42.9959V44.9959ZM112.606 41.3999C112.606 40.7689 112.426 40.2012 112.065 39.7105C111.719 39.2397 111.243 38.8915 110.731 38.6129C109.737 38.0724 108.329 37.6568 106.743 37.1854L106.173 39.1025C107.844 39.5991 109.01 39.9535 109.776 40.37C110.143 40.5699 110.345 40.7469 110.455 40.8962C110.55 41.0256 110.606 41.173 110.606 41.3999H112.606ZM106.729 37.1812C104.777 36.6331 103.073 36.0244 101.857 35.0947C100.706 34.2137 99.9784 33.036 99.9784 31.1919H97.9784C97.9784 33.7039 99.0329 35.4521 100.642 36.6832C102.188 37.8655 104.223 38.5548 106.188 39.1067L106.729 37.1812ZM99.9784 31.1919C99.9784 29.3084 100.739 27.7135 102.136 26.5704C103.549 25.4141 105.683 24.6679 108.482 24.6679V22.6679C105.342 22.6679 102.723 23.5057 100.87 25.0225C98.9998 26.5523 97.9784 28.7194 97.9784 31.1919H99.9784ZM123.079 48.4399H122.079V49.4399H123.079V48.4399ZM123.079 15.6599V14.6599H122.079V15.6599H123.079ZM129.239 15.6599H130.239V14.6599H129.239V15.6599ZM129.239 42.7639H128.239V43.7639H129.239V42.7639ZM143.099 42.7639H144.099V41.7639H143.099V42.7639ZM143.099 48.4399V49.4399H144.099V48.4399H143.099ZM124.079 48.4399V15.6599H122.079V48.4399H124.079ZM123.079 16.6599H129.239V14.6599H123.079V16.6599ZM128.239 15.6599V42.7639H130.239V15.6599H128.239ZM129.239 43.7639H143.099V41.7639H129.239V43.7639ZM142.099 42.7639V48.4399H144.099V42.7639H142.099ZM143.099 47.4399H123.079V49.4399H143.099V47.4399ZM147.342 48.4399H146.342V49.4399H147.342V48.4399ZM147.342 24.2399V23.2399H146.342V24.2399H147.342ZM153.414 24.2399H154.414V23.2399H153.414V24.2399ZM153.414 48.4399V49.4399H154.414V48.4399H153.414ZM148.342 48.4399V24.2399H146.342V48.4399H148.342ZM147.342 25.2399H153.414V23.2399H147.342V25.2399ZM152.414 24.2399V48.4399H154.414V24.2399H152.414ZM153.414 47.4399H147.342V49.4399H153.414V47.4399ZM147.946 16.8479C147.946 15.5167 148.986 14.4599 150.378 14.4599V12.4599C147.898 12.4599 145.946 14.3952 145.946 16.8479H147.946ZM150.378 14.4599C151.718 14.4599 152.766 15.5082 152.766 16.8479H154.766C154.766 14.4037 152.822 12.4599 150.378 12.4599V14.4599ZM152.766 16.8479C152.766 18.1706 151.735 19.1919 150.378 19.1919V21.1919C152.805 21.1919 154.766 19.3093 154.766 16.8479H152.766ZM150.378 19.1919C148.968 19.1919 147.946 18.1622 147.946 16.8479H145.946C145.946 19.3176 147.915 21.1919 150.378 21.1919V19.1919ZM181.141 48.4399V49.4399H182.141V48.4399H181.141ZM175.069 48.4399H174.069V49.4399H175.069V48.4399ZM165.873 48.4399V49.4399H166.873V48.4399H165.873ZM159.801 48.4399H158.801V49.4399H159.801V48.4399ZM159.801 24.2399V23.2399H158.801V24.2399H159.801ZM164.509 24.2399L165.491 24.0534L165.337 23.2399H164.509V24.2399ZM165.169 27.7159L164.186 27.9025L164.341 28.7159H165.169V27.7159ZM165.301 27.7159V28.7159H165.854L166.148 28.2474L165.301 27.7159ZM172.605 24.6679C175.033 24.6679 176.892 25.4224 178.142 26.6866C179.393 27.9522 180.141 29.8349 180.141 32.2919H182.141C182.141 29.425 181.26 26.9957 179.564 25.2803C177.866 23.5635 175.456 22.6679 172.605 22.6679V24.6679ZM180.141 32.2919V48.4399H182.141V32.2919H180.141ZM181.141 47.4399H175.069V49.4399H181.141V47.4399ZM176.069 48.4399V34.1399H174.069V48.4399H176.069ZM176.069 34.1399C176.069 32.3398 175.669 30.8215 174.699 29.7508C173.712 28.6607 172.299 28.2119 170.669 28.2119V30.2119C171.943 30.2119 172.729 30.5552 173.217 31.0931C173.721 31.6504 174.069 32.5961 174.069 34.1399H176.069ZM170.669 28.2119C167.357 28.2119 164.873 30.6275 164.873 33.9639H166.873C166.873 31.7564 168.437 30.2119 170.669 30.2119V28.2119ZM164.873 33.9639V48.4399H166.873V33.9639H164.873ZM165.873 47.4399H159.801V49.4399H165.873V47.4399ZM160.801 48.4399V24.2399H158.801V48.4399H160.801ZM159.801 25.2399H164.509V23.2399H159.801V25.2399ZM163.526 24.4265L164.186 27.9025L166.151 27.5294L165.491 24.0534L163.526 24.4265ZM165.169 28.7159H165.301V26.7159H165.169V28.7159ZM166.148 28.2474C167.398 26.2544 169.65 24.6679 172.605 24.6679V22.6679C168.871 22.6679 166.019 24.6895 164.454 27.1844L166.148 28.2474ZM210.05 24.2399L210.806 24.8948L212.239 23.2399H210.05V24.2399ZM200.062 35.7679L199.306 35.1131L198.757 35.7473L199.286 36.3985L200.062 35.7679ZM210.358 48.4399V49.4399H212.459L211.134 47.8093L210.358 48.4399ZM202.834 48.4399L202.052 49.0632L202.352 49.4399H202.834V48.4399ZM193.33 36.5159L194.112 35.8927L192.33 33.6569V36.5159H193.33ZM193.33 48.4399V49.4399H194.33V48.4399H193.33ZM187.258 48.4399H186.258V49.4399H187.258V48.4399ZM187.258 13.1519V12.1519H186.258V13.1519H187.258ZM193.33 13.1519H194.33V12.1519H193.33V13.1519ZM193.33 35.4159H192.33V38.1549L194.095 36.0603L193.33 35.4159ZM202.746 24.2399V23.2399H202.281L201.981 23.5956L202.746 24.2399ZM209.294 23.5851L199.306 35.1131L200.818 36.4228L210.806 24.8948L209.294 23.5851ZM199.286 36.3985L209.582 49.0705L211.134 47.8093L200.838 35.1373L199.286 36.3985ZM210.358 47.4399H202.834V49.4399H210.358V47.4399ZM203.616 47.8167L194.112 35.8927L192.548 37.1392L202.052 49.0632L203.616 47.8167ZM192.33 36.5159V48.4399H194.33V36.5159H192.33ZM193.33 47.4399H187.258V49.4399H193.33V47.4399ZM188.258 48.4399V13.1519H186.258V48.4399H188.258ZM187.258 14.1519H193.33V12.1519H187.258V14.1519ZM192.33 13.1519V35.4159H194.33V13.1519H192.33ZM194.095 36.0603L203.511 24.8843L201.981 23.5956L192.565 34.7716L194.095 36.0603ZM202.746 25.2399H210.05V23.2399H202.746V25.2399Z" fill="black"/>
</svg>
