<svg width="31" height="30" viewBox="0 0 31 30" fill="none" xmlns="http://www.w3.org/2000/svg">
<rect width="30" height="30" transform="translate(0.00146484)" fill="white"/>
<path d="M26.2515 14.375C26.2558 16.0248 25.8703 17.6523 25.1265 19.125C24.2445 20.8897 22.8887 22.3739 21.2108 23.4116C19.5329 24.4492 17.5993 24.9992 15.6265 25C13.9766 25.0043 12.3491 24.6188 10.8765 23.875L3.75146 26.25L6.12646 19.125C5.38263 17.6523 4.99716 16.0248 5.00146 14.375C5.00223 12.4022 5.55223 10.4685 6.58986 8.79066C7.6275 7.11279 9.11178 5.75693 10.8765 4.87497C12.3491 4.13114 13.9766 3.74567 15.6265 3.74997H16.2515C18.8569 3.89371 21.3178 4.99343 23.1629 6.83855C25.008 8.68367 26.1077 11.1445 26.2515 13.75V14.375Z" stroke="#922EFF" stroke-width="2" stroke-linecap="round" stroke-linejoin="round"/>
</svg>
