<svg width="586" height="576" viewBox="0 0 586 576" fill="none" xmlns="http://www.w3.org/2000/svg">
<g clip-path="url(#clip0_8_20)">
<path d="M477.531 275.845C437.382 300.919 380.612 328.2 315.865 352.157C251.878 375.837 191.693 391.982 145.124 399.203C128.845 377.149 117.682 351.722 112.414 324.923C110.818 316.793 109.761 308.536 109.277 300.21C107.617 272.09 112.392 243.174 124.45 215.593C165.268 122.228 274.041 79.6314 367.407 120.45C397.43 133.576 422.202 153.728 440.639 178.139C445.626 184.739 450.152 191.65 454.183 198.823C467.46 222.372 475.495 248.696 477.531 275.845Z" fill="url(#paint0_linear_8_20)"/>
<path d="M462.55 363.407C421.732 456.772 312.959 499.369 219.593 458.55C198.4 449.285 179.818 436.518 164.242 421.225C157.254 414.367 150.869 406.998 145.124 399.203C191.693 391.982 251.879 375.837 315.865 352.157C380.613 328.2 437.382 300.919 477.532 275.845C478.249 285.432 478.221 295.123 477.413 304.829C475.77 324.524 470.91 344.287 462.55 363.407Z" fill="url(#paint1_linear_8_20)"/>
<path fill-rule="evenodd" clip-rule="evenodd" d="M391.916 335.608L383.777 319.916L399.47 311.777L407.608 327.47L391.916 335.608Z" fill="#FF784F"/>
<path fill-rule="evenodd" clip-rule="evenodd" d="M346.5 359L336 349L346.5 339L357 349L346.5 359Z" fill="#FF784F"/>
</g>
<path fill-rule="evenodd" clip-rule="evenodd" d="M426.5 136C338.411 136 267 204.724 267 289.5C267 374.276 338.411 443 426.5 443C514.589 443 586 374.276 586 289.5C586 204.724 514.589 136 426.5 136Z" fill="#4F4789"/>
<path fill-rule="evenodd" clip-rule="evenodd" d="M100.5 468C81.4462 468 66 483.446 66 502.5C66 521.554 81.4462 537 100.5 537C119.554 537 135 521.554 135 502.5C135 483.446 119.554 468 100.5 468Z" fill="#4F4789"/>
<path fill-rule="evenodd" clip-rule="evenodd" d="M477.5 105L457 85L477.5 65L498 85L477.5 105Z" fill="#F5F9E9"/>
<path fill-rule="evenodd" clip-rule="evenodd" d="M23.5 218L3 198L23.5 178L44 198L23.5 218Z" fill="#4F4789"/>
<path fill-rule="evenodd" clip-rule="evenodd" d="M478 513L468 503L478 493L488 503L478 513Z" fill="#F5F9E9"/>
<path fill-rule="evenodd" clip-rule="evenodd" d="M20.5 408L0 388L20.5 368L41 388L20.5 408Z" fill="#FF784F"/>
<path fill-rule="evenodd" clip-rule="evenodd" d="M287.5 576L277 566L287.5 556L298 566L287.5 576Z" fill="#FF784F"/>
<path fill-rule="evenodd" clip-rule="evenodd" d="M316 0C306.059 0 298 8.05887 298 18C298 27.9411 306.059 36 316 36C325.941 36 334 27.9411 334 18C334 8.05887 325.941 0 316 0Z" fill="#FF784F"/>
<path fill-rule="evenodd" clip-rule="evenodd" d="M145 67L135 57L145 47L155 57L145 67Z" fill="#4F4789"/>
<path fill-rule="evenodd" clip-rule="evenodd" d="M501.916 325.608L493.777 309.916L509.47 301.777L517.608 317.47L501.916 325.608Z" fill="#F5F9E9"/>
<defs>
<linearGradient id="paint0_linear_8_20" x1="129.365" y1="204.35" x2="447.904" y2="343.612" gradientUnits="userSpaceOnUse">
<stop offset="0.19" stop-color="#FF7117"/>
<stop offset="1" stop-color="#922EFF"/>
</linearGradient>
<linearGradient id="paint1_linear_8_20" x1="130.321" y1="274.517" x2="430.295" y2="401.913" gradientUnits="userSpaceOnUse">
<stop stop-color="#FF7117"/>
<stop offset="0.1" stop-color="#F86C25"/>
<stop offset="0.3" stop-color="#E5614C"/>
<stop offset="0.56" stop-color="#C84F8B"/>
<stop offset="0.89" stop-color="#A036E0"/>
<stop offset="1" stop-color="#922EFF"/>
</linearGradient>
<clipPath id="clip0_8_20">
<rect width="369" height="369" fill="white" transform="translate(198.356 46.5428) rotate(23.6144)"/>
</clipPath>
</defs>
</svg>
