<svg width="642" height="638" viewBox="0 0 642 638" fill="none" xmlns="http://www.w3.org/2000/svg">
<path fill-rule="evenodd" clip-rule="evenodd" d="M305.317 60L284.829 40L305.317 20L325.804 40L305.317 60Z" fill="#4F4789"/>
<path fill-rule="evenodd" clip-rule="evenodd" d="M146.912 128L136.918 118L146.912 108L156.906 118L146.912 128Z" fill="#FF784F"/>
<path fill-rule="evenodd" clip-rule="evenodd" d="M27.9832 20L17.9892 10L27.9832 4.76837e-07L37.9772 10L27.9832 20Z" fill="#4F4789"/>
<path fill-rule="evenodd" clip-rule="evenodd" d="M9.99404 456L3.67165e-05 446L9.99404 436L19.988 446L9.99404 456Z" fill="#FF784F"/>
<path fill-rule="evenodd" clip-rule="evenodd" d="M47.9712 219L37.9772 209L47.9712 199L57.9652 209L47.9712 219Z" fill="#4F4789"/>
<path fill-rule="evenodd" clip-rule="evenodd" d="M108.935 363L98.9406 353L108.935 343L118.929 353L108.935 363Z" fill="#4F4789"/>
<path fill-rule="evenodd" clip-rule="evenodd" d="M348.791 638L338.797 628L348.791 618L358.785 628L348.791 638Z" fill="#F5F9E9"/>
<path fill-rule="evenodd" clip-rule="evenodd" d="M622.542 347.608L614.408 331.916L630.091 323.777L638.225 339.47L622.542 347.608Z" fill="#FF784F"/>
<path fill-rule="evenodd" clip-rule="evenodd" d="M522.187 513L501.699 493L522.187 473L542.674 493L522.187 513Z" fill="#4F4789"/>
<path fill-rule="evenodd" clip-rule="evenodd" d="M237.857 570L227.863 560L237.857 550L247.851 560L237.857 570Z" fill="#FF784F"/>
<g clip-path="url(#clip0_4_63)">
<path d="M501.281 158.237C474.229 197.701 432.666 245.936 382.361 294.322C332.65 342.143 283.409 381.45 243.172 406.985C219.147 393.156 198.497 374.133 182.755 351.455C177.982 344.574 173.656 337.358 169.834 329.845C156.901 304.484 149.609 275.78 149.609 245.366C149.609 142.407 233.166 58.9449 336.243 58.9449C369.389 58.9449 400.515 67.5757 427.495 82.7129C434.792 86.8047 441.787 91.3716 448.43 96.3801C470.278 112.809 488.393 133.927 501.281 158.237Z" fill="url(#paint0_linear_4_63)"/>
<path d="M522.876 245.366C522.876 348.325 439.319 431.787 336.243 431.787C312.845 431.787 290.449 427.488 269.815 419.635C260.559 416.113 251.656 411.876 243.172 406.985C283.409 381.45 332.65 342.143 382.361 294.322C432.665 245.936 474.229 197.701 501.281 158.237C505.83 166.823 509.731 175.806 512.915 185.119C519.373 204.018 522.876 224.281 522.876 245.366Z" fill="url(#paint1_linear_4_63)"/>
<path d="M512.915 185.119C481.985 224.79 442.761 268.223 397.768 311.499C353.809 353.781 309.907 390.562 269.816 419.635C189.941 477.545 125.176 504.852 105.147 484.08C85.784 463.996 112.948 403.877 169.834 329.845C173.656 337.358 177.982 344.574 182.755 351.455C155.25 392.2 143.699 423.167 154.685 434.559C166.045 446.343 199.242 434.867 243.172 406.985C283.409 381.45 332.65 342.143 382.361 294.322C432.666 245.936 474.229 197.701 501.281 158.237C530.146 116.123 542.475 84.0042 531.243 72.3494C520.381 61.0859 489.534 71.0917 448.43 96.3801C441.787 91.3716 434.792 86.8047 427.495 82.7129C502.406 30.0902 562.324 6.08191 581.447 25.9202C601.241 46.4517 572.414 108.823 512.915 185.119Z" fill="#5A4056"/>
</g>
<defs>
<linearGradient id="paint0_linear_4_63" x1="149.609" y1="232.962" x2="501.281" y2="232.962" gradientUnits="userSpaceOnUse">
<stop offset="0.19" stop-color="#FF7117"/>
<stop offset="1" stop-color="#922EFF"/>
</linearGradient>
<linearGradient id="paint1_linear_4_63" x1="178.922" y1="297.541" x2="508.584" y2="294.062" gradientUnits="userSpaceOnUse">
<stop stop-color="#FF7117"/>
<stop offset="0.1" stop-color="#F86C25"/>
<stop offset="0.3" stop-color="#E5614C"/>
<stop offset="0.56" stop-color="#C84F8B"/>
<stop offset="0.89" stop-color="#A036E0"/>
<stop offset="1" stop-color="#922EFF"/>
</linearGradient>
<clipPath id="clip0_4_63">
<rect width="488.707" height="472" fill="white" transform="translate(98.9406 19)"/>
</clipPath>
</defs>
</svg>
