<svg width="489" height="472" viewBox="0 0 489 472" fill="none" xmlns="http://www.w3.org/2000/svg">
<g clip-path="url(#clip0_10_207)">
<path d="M402.582 139.237C375.513 178.701 333.925 226.936 283.591 275.322C233.85 323.143 184.579 362.45 144.318 387.985C120.279 374.156 99.6165 355.133 83.8649 332.455C79.0885 325.574 74.76 318.358 70.9355 310.845C57.9949 285.484 50.6986 256.78 50.6986 226.366C50.6986 123.407 134.306 39.9449 237.445 39.9449C270.611 39.9449 301.756 48.5757 328.751 63.7129C336.053 67.8047 343.053 72.3716 349.699 77.3801C371.56 93.8086 389.686 114.927 402.582 139.237Z" fill="url(#paint0_linear_10_207)"/>
<path d="M424.19 226.366C424.19 329.325 340.583 412.787 237.445 412.787C214.033 412.787 191.623 408.488 170.978 400.635C161.716 397.113 152.807 392.876 144.318 387.985C184.579 362.45 233.85 323.143 283.591 275.322C333.925 226.936 375.513 178.701 402.582 139.237C407.134 147.823 411.037 156.806 414.223 166.119C420.685 185.018 424.19 205.281 424.19 226.366Z" fill="url(#paint1_linear_10_207)"/>
<path d="M414.223 166.119C383.275 205.79 344.027 249.223 299.006 292.499C255.022 334.781 211.093 371.562 170.978 400.635C91.0549 458.545 26.251 485.852 6.21008 465.08C-13.1645 444.996 14.0159 384.877 70.9356 310.845C74.7601 318.358 79.0886 325.574 83.865 332.455C56.3431 373.2 44.7856 404.167 55.7776 415.559C67.1447 427.343 100.361 415.867 144.318 387.985C184.579 362.45 233.85 323.143 283.591 275.322C333.925 226.936 375.514 178.701 402.582 139.237C431.465 97.1234 443.8 65.0042 432.562 53.3494C421.693 42.0859 390.828 52.0917 349.699 77.3801C343.053 72.3716 336.053 67.8047 328.751 63.7129C403.707 11.0902 463.662 -12.9181 482.796 6.92023C502.602 27.4517 473.758 89.823 414.223 166.119Z" fill="#5A4056"/>
</g>
<defs>
<linearGradient id="paint0_linear_10_207" x1="50.6986" y1="213.962" x2="402.582" y2="213.962" gradientUnits="userSpaceOnUse">
<stop offset="0.19" stop-color="#FF7117"/>
<stop offset="1" stop-color="#922EFF"/>
</linearGradient>
<linearGradient id="paint1_linear_10_207" x1="80.0292" y1="278.541" x2="409.889" y2="275.058" gradientUnits="userSpaceOnUse">
<stop stop-color="#FF7117"/>
<stop offset="0.1" stop-color="#F86C25"/>
<stop offset="0.3" stop-color="#E5614C"/>
<stop offset="0.56" stop-color="#C84F8B"/>
<stop offset="0.89" stop-color="#A036E0"/>
<stop offset="1" stop-color="#922EFF"/>
</linearGradient>
<clipPath id="clip0_10_207">
<rect width="489" height="472" fill="white"/>
</clipPath>
</defs>
</svg>
