<svg width="634" height="643" viewBox="0 0 634 643" fill="none" xmlns="http://www.w3.org/2000/svg">
<g clip-path="url(#clip0_45_291)">
<path d="M152.128 364.096C182.246 326.874 227.642 281.992 281.878 237.589C335.476 193.704 387.996 158.235 430.446 135.788C453.735 151.244 473.249 171.611 487.546 195.253C491.881 202.427 495.74 209.901 499.069 217.633C510.338 243.736 515.673 272.75 513.522 302.938C506.237 405.129 415.93 481.952 311.811 474.531C278.329 472.144 247.499 461.337 221.317 444.37C214.236 439.783 207.493 434.746 201.137 429.297C180.231 411.418 163.427 389.153 152.128 364.096Z" fill="url(#paint0_linear_45_291)"/>
<path d="M136.478 276.062C143.762 173.871 234.069 97.0478 338.189 104.469C361.823 106.154 384.142 112.033 404.428 121.314C413.529 125.476 422.223 130.322 430.446 135.788C387.996 158.235 335.476 193.704 281.878 237.589C227.642 281.992 182.246 326.874 152.128 364.096C148.14 355.246 144.835 346.05 142.278 336.577C137.091 317.354 134.986 296.99 136.478 276.062Z" fill="url(#paint1_linear_45_291)"/>
</g>
<path fill-rule="evenodd" clip-rule="evenodd" d="M645 372L686 413.5L645 455L604 413.5L645 372Z" fill="#F5F9E9"/>
<path d="M138 258.283C591.878 370.812 720.056 393.406 516 296.5" stroke="#F5F9E9" stroke-width="10"/>
<path d="M139.177 255.67C-104.024 180.988 104.545 199.894 151.5 213.5" stroke="#4F4789" stroke-width="10"/>
<path fill-rule="evenodd" clip-rule="evenodd" d="M312.5 643C324.926 643 335 632.926 335 620.5C335 608.074 324.926 598 312.5 598C300.074 598 290 608.074 290 620.5C290 632.926 300.074 643 312.5 643Z" fill="#F5F9E9"/>
<path fill-rule="evenodd" clip-rule="evenodd" d="M41 294L82 335.5L41 377L0 335.5L41 294Z" fill="#4F4789"/>
<path fill-rule="evenodd" clip-rule="evenodd" d="M190.5 16L211 36L190.5 56L170 36L190.5 16Z" fill="#4F4789"/>
<path fill-rule="evenodd" clip-rule="evenodd" d="M515 72L525 82L515 92L505 82L515 72Z" fill="#F5F9E9"/>
<path fill-rule="evenodd" clip-rule="evenodd" d="M100.5 521L118 538.5L100.5 556L83 538.5L100.5 521Z" fill="#4F4789"/>
<path fill-rule="evenodd" clip-rule="evenodd" d="M23 118C13.0589 118 5 126.059 5 136C5 145.941 13.0589 154 23 154C32.9411 154 41 145.941 41 136C41 126.059 32.9411 118 23 118Z" fill="#FF784F"/>
<path fill-rule="evenodd" clip-rule="evenodd" d="M614.5 217L604 207L614.5 197L625 207L614.5 217Z" fill="#FF784F"/>
<path fill-rule="evenodd" clip-rule="evenodd" d="M516.5 604L496 584L516.5 564L537 584L516.5 604Z" fill="#FF784F"/>
<path fill-rule="evenodd" clip-rule="evenodd" d="M359.74 44.0472L345.395 19.2586L370.53 5.5301L384.875 30.3187L359.74 44.0472Z" fill="#FF784F"/>
<defs>
<linearGradient id="paint0_linear_45_291" x1="512.644" y1="315.244" x2="157.415" y2="289.923" gradientUnits="userSpaceOnUse">
<stop offset="0.19" stop-color="#FF7117"/>
<stop offset="1" stop-color="#922EFF"/>
</linearGradient>
<linearGradient id="paint1_linear_45_291" x1="487.598" y1="249.04" x2="154.353" y2="228.882" gradientUnits="userSpaceOnUse">
<stop stop-color="#FF7117"/>
<stop offset="0.1" stop-color="#F86C25"/>
<stop offset="0.3" stop-color="#E5614C"/>
<stop offset="0.56" stop-color="#C84F8B"/>
<stop offset="0.89" stop-color="#A036E0"/>
<stop offset="1" stop-color="#922EFF"/>
</linearGradient>
<clipPath id="clip0_45_291">
<rect width="378" height="371" fill="white" transform="translate(500.333 487.968) rotate(-175.923)"/>
</clipPath>
</defs>
</svg>
