<svg width="1300" height="887" viewBox="0 0 1300 887" fill="none" xmlns="http://www.w3.org/2000/svg">
<path fill-rule="evenodd" clip-rule="evenodd" d="M644 748C630.745 748 620 758.745 620 772C620 785.255 630.745 796 644 796C657.255 796 668 785.255 668 772C668 758.745 657.255 748 644 748Z" fill="#FF784F"/>
<path fill-rule="evenodd" clip-rule="evenodd" d="M602 0C588.193 0 577 11.1929 577 25C577 38.8071 588.193 50 602 50C615.807 50 627 38.8071 627 25C627 11.1929 615.807 0 602 0Z" fill="#4F4789"/>
<path fill-rule="evenodd" clip-rule="evenodd" d="M15.5 227C6.93959 227 0 233.94 0 242.5C0 251.06 6.93959 258 15.5 258C24.0604 258 31 251.06 31 242.5C31 233.94 24.0604 227 15.5 227Z" fill="#4F4789"/>
<path fill-rule="evenodd" clip-rule="evenodd" d="M941.5 238L921 218L941.5 198L962 218L941.5 238Z" fill="#4F4789"/>
<path fill-rule="evenodd" clip-rule="evenodd" d="M449.5 674L429 654L449.5 634L470 654L449.5 674Z" fill="#4F4789"/>
<path fill-rule="evenodd" clip-rule="evenodd" d="M375.5 94L355 74L375.5 54L396 74L375.5 94Z" fill="#4F4789"/>
<path fill-rule="evenodd" clip-rule="evenodd" d="M496.5 274L476 254L496.5 234L517 254L496.5 274Z" fill="#FF784F"/>
<path fill-rule="evenodd" clip-rule="evenodd" d="M783 306L773 296L783 286L793 296L783 306Z" fill="#FF784F"/>
<path fill-rule="evenodd" clip-rule="evenodd" d="M664 198L654 188L664 178L674 188L664 198Z" fill="#4F4789"/>
<path fill-rule="evenodd" clip-rule="evenodd" d="M556 565L546 555L556 545L566 555L556 565Z" fill="#4F4789"/>
<path fill-rule="evenodd" clip-rule="evenodd" d="M646 634L636 624L646 614L656 624L646 634Z" fill="#FF784F"/>
<path fill-rule="evenodd" clip-rule="evenodd" d="M684 397L674 387L684 377L694 387L684 397Z" fill="#4F4789"/>
<path fill-rule="evenodd" clip-rule="evenodd" d="M745 541L735 531L745 521L755 531L745 541Z" fill="#4F4789"/>
<path fill-rule="evenodd" clip-rule="evenodd" d="M355 208L345 198L355 188L365 198L355 208Z" fill="#4F4789"/>
<path fill-rule="evenodd" clip-rule="evenodd" d="M91 151L81 141L91 131L101 141L91 151Z" fill="#FF784F"/>
<path fill-rule="evenodd" clip-rule="evenodd" d="M985 816L975 806L985 796L995 806L985 816Z" fill="#F5F9E9"/>
<path fill-rule="evenodd" clip-rule="evenodd" d="M1258.92 525.608L1250.78 509.916L1266.47 501.777L1274.61 517.47L1258.92 525.608Z" fill="#FF784F"/>
<path fill-rule="evenodd" clip-rule="evenodd" d="M192.916 285.608L184.777 269.916L200.47 261.777L208.608 277.47L192.916 285.608Z" fill="#4F4789"/>
<path fill-rule="evenodd" clip-rule="evenodd" d="M798.5 824C789.94 824 783 830.94 783 839.5C783 848.06 789.94 855 798.5 855C807.06 855 814 848.06 814 839.5C814 830.94 807.06 824 798.5 824Z" fill="#4F4789"/>
<path fill-rule="evenodd" clip-rule="evenodd" d="M1158.5 691L1138 671L1158.5 651L1179 671L1158.5 691Z" fill="#4F4789"/>
<path fill-rule="evenodd" clip-rule="evenodd" d="M1279.5 871L1259 851L1279.5 831L1300 851L1279.5 871Z" fill="#FF784F"/>
<path fill-rule="evenodd" clip-rule="evenodd" d="M1138 805L1128 795L1138 785L1148 795L1138 805Z" fill="#4F4789"/>
<path fill-rule="evenodd" clip-rule="evenodd" d="M874 748L864 738L874 728L884 738L874 748Z" fill="#FF784F"/>
<path fill-rule="evenodd" clip-rule="evenodd" d="M975.916 882.608L967.777 866.916L983.47 858.777L991.608 874.47L975.916 882.608Z" fill="#4F4789"/>
<path fill-rule="evenodd" clip-rule="evenodd" d="M15.5 227C6.93959 227 0 233.94 0 242.5C0 251.06 6.93959 258 15.5 258C24.0604 258 31 251.06 31 242.5C31 233.94 24.0604 227 15.5 227Z" fill="#4F4789"/>
<path fill-rule="evenodd" clip-rule="evenodd" d="M375.5 94L355 74L375.5 54L396 74L375.5 94Z" fill="#4F4789"/>
<path fill-rule="evenodd" clip-rule="evenodd" d="M496.5 274L476 254L496.5 234L517 254L496.5 274Z" fill="#FF784F"/>
<path fill-rule="evenodd" clip-rule="evenodd" d="M355 208L345 198L355 188L365 198L355 208Z" fill="#4F4789"/>
<path fill-rule="evenodd" clip-rule="evenodd" d="M91 151L81 141L91 131L101 141L91 151Z" fill="#FF784F"/>
<path fill-rule="evenodd" clip-rule="evenodd" d="M192.916 285.608L184.777 269.916L200.47 261.777L208.608 277.47L192.916 285.608Z" fill="#4F4789"/>
</svg>
