<svg width="31" height="30" viewBox="0 0 31 30" fill="none" xmlns="http://www.w3.org/2000/svg">
<path d="M8.75146 13.75L13.7515 2.5C14.746 2.5 15.6999 2.89509 16.4031 3.59835C17.1064 4.30161 17.5015 5.25544 17.5015 6.25V11.25H24.5765C24.9388 11.2459 25.2978 11.3206 25.6284 11.469C25.9591 11.6174 26.2535 11.8359 26.4913 12.1094C26.7291 12.3829 26.9046 12.7048 27.0056 13.0528C27.1067 13.4009 27.1308 13.7667 27.0765 14.125L25.3515 25.375C25.2611 25.9711 24.9583 26.5145 24.4988 26.905C24.0394 27.2955 23.4544 27.5068 22.8515 27.5H8.75146M8.75146 13.75V27.5M8.75146 13.75H5.00146C4.33842 13.75 3.70254 14.0134 3.2337 14.4822C2.76486 14.9511 2.50146 15.587 2.50146 16.25V25C2.50146 25.663 2.76486 26.2989 3.2337 26.7678C3.70254 27.2366 4.33842 27.5 5.00146 27.5H8.75146" stroke="#FF784F" stroke-width="2" stroke-linecap="round" stroke-linejoin="round"/>
</svg>
