<svg width="57" height="57" viewBox="0 0 57 57" fill="none" xmlns="http://www.w3.org/2000/svg">
<path d="M45.125 7.125H11.875C9.25165 7.125 7.125 9.25165 7.125 11.875V45.125C7.125 47.7484 9.25165 49.875 11.875 49.875H45.125C47.7484 49.875 49.875 47.7484 49.875 45.125V11.875C49.875 9.25165 47.7484 7.125 45.125 7.125Z" stroke="#4F4789" stroke-width="2.75" stroke-linecap="round" stroke-linejoin="round"/>
<path d="M20.1875 23.75C22.155 23.75 23.75 22.155 23.75 20.1875C23.75 18.22 22.155 16.625 20.1875 16.625C18.22 16.625 16.625 18.22 16.625 20.1875C16.625 22.155 18.22 23.75 20.1875 23.75Z" stroke="#4F4789" stroke-width="2.75" stroke-linecap="round" stroke-linejoin="round"/>
<path d="M49.875 35.625L38 23.75L11.875 49.875" stroke="#4F4789" stroke-width="2.75" stroke-linecap="round" stroke-linejoin="round"/>
</svg>
