<svg width="169" height="44" viewBox="0 0 169 44" fill="none" xmlns="http://www.w3.org/2000/svg">
<path d="M21.352 34.81C19.516 35.796 17.306 36.578 14.382 36.578C7.344 36.578 1.326 31.308 1.326 23.318C1.326 15.328 7.344 10.058 14.382 10.058C17.306 10.058 19.55 10.84 21.352 11.792V17.3C19.312 15.94 17.476 15.192 14.96 15.192C10.642 15.192 6.936 18.388 6.936 23.318C6.936 28.214 10.642 31.478 14.96 31.478C17.476 31.478 19.312 30.628 21.352 29.234V34.81ZM25.1558 36V8.698H30.5958V36H25.1558ZM42.4931 36.476C38.2431 36.476 34.1291 32.532 34.1291 26.65C34.1291 20.632 38.2431 16.688 42.4931 16.688C45.3151 16.688 47.4231 18.116 48.6471 20.054H48.6811L49.2251 17.164H53.8151V36H49.2251L48.6811 33.11H48.6471C47.4231 35.082 45.3151 36.476 42.4931 36.476ZM39.6031 26.582C39.6031 29.472 41.5071 31.58 44.0911 31.58C46.6071 31.58 48.4771 29.506 48.4771 26.582C48.4771 23.658 46.6071 21.584 44.0911 21.584C41.5071 21.584 39.6031 23.726 39.6031 26.582ZM65.3289 16.688C67.5389 16.688 69.8169 17.232 71.2789 18.15V22.774C69.9529 21.856 67.6749 21.108 65.5329 21.108C63.8329 21.108 62.8809 21.686 62.8809 22.604C62.8809 23.624 63.9689 24.032 66.1109 24.61C69.2049 25.358 72.5029 26.412 72.5029 30.39C72.5029 34.096 69.5789 36.476 64.4789 36.476C61.7589 36.476 59.4129 35.796 57.7469 34.708V29.71C59.3449 31.002 61.4869 32.056 64.2409 32.056C66.1449 32.056 67.2329 31.444 67.2329 30.424C67.2329 29.268 65.8729 28.894 63.4249 28.214C60.4329 27.364 57.6449 26.14 57.6449 22.706C57.6449 19.238 60.4669 16.688 65.3289 16.688ZM82.9929 16.688C85.2029 16.688 87.4809 17.232 88.9429 18.15V22.774C87.6169 21.856 85.3389 21.108 83.1969 21.108C81.4969 21.108 80.5449 21.686 80.5449 22.604C80.5449 23.624 81.6329 24.032 83.7749 24.61C86.8689 25.358 90.1669 26.412 90.1669 30.39C90.1669 34.096 87.2429 36.476 82.1429 36.476C79.4229 36.476 77.0769 35.796 75.4109 34.708V29.71C77.0089 31.002 79.1509 32.056 81.9049 32.056C83.8089 32.056 84.8969 31.444 84.8969 30.424C84.8969 29.268 83.5369 28.894 81.0889 28.214C78.0969 27.364 75.3089 26.14 75.3089 22.706C75.3089 19.238 78.1309 16.688 82.9929 16.688ZM94.129 36V10.636H99.671V30.968H110.177V36H94.129ZM113.177 36V17.164H118.617V36H113.177ZM112.905 11.622C112.905 9.99 114.197 8.698 115.897 8.698C117.529 8.698 118.855 9.99 118.855 11.622C118.855 13.288 117.529 14.58 115.897 14.58C114.197 14.58 112.905 13.288 112.905 11.622ZM133.711 16.688C137.791 16.688 140.307 19.204 140.307 23.42V36H134.867V24.984C134.867 22.672 133.847 21.618 131.875 21.618C129.937 21.618 128.611 22.978 128.611 24.848V36H123.171V17.164H127.387L127.931 19.816H128.033C129.155 18.048 131.127 16.688 133.711 16.688ZM163.386 17.164L156.042 26.14L163.624 36H156.96L150.126 26.888V36H144.686V8.698H150.126V25.766L156.96 17.164H163.386Z" fill="white"/>
<path d="M23.246 35.9833L23.7273 36.8599L24.246 36.5751V35.9833H23.246ZM23.246 12.9993H24.246V12.4076L23.7273 12.1228L23.246 12.9993ZM23.246 17.7933L22.6946 18.6275L24.246 19.6531V17.7933H23.246ZM23.246 31.1213H24.246V29.2616L22.6946 30.2871L23.246 31.1213ZM22.7648 35.1068C21.1541 35.9911 19.1082 36.7173 16.378 36.7173V38.7173C19.4959 38.7173 21.87 37.8796 23.7273 36.8599L22.7648 35.1068ZM16.378 36.7173C10.0381 36.7173 4.49203 31.9392 4.49203 24.4913H2.49203C2.49203 33.0915 8.98194 38.7173 16.378 38.7173V36.7173ZM4.49203 24.4913C4.49203 17.0435 10.0381 12.2653 16.378 12.2653V10.2653C8.98194 10.2653 2.49203 15.8912 2.49203 24.4913H4.49203ZM16.378 12.2653C19.1082 12.2653 21.1541 12.9916 22.7648 13.8759L23.7273 12.1228C21.87 11.1031 19.4959 10.2653 16.378 10.2653V12.2653ZM22.246 12.9993V17.7933H24.246V12.9993H22.246ZM23.7975 16.9591C21.672 15.5541 19.613 14.7193 16.82 14.7193V16.7193C19.127 16.7193 20.8081 17.3805 22.6946 18.6275L23.7975 16.9591ZM16.82 14.7193C11.84 14.7193 7.35403 18.5072 7.35403 24.4913H9.35403C9.35403 19.6635 12.8921 16.7193 16.82 16.7193V14.7193ZM7.35403 24.4913C7.35403 30.4337 11.832 34.2973 16.82 34.2973V32.2973C12.9001 32.2973 9.35403 29.293 9.35403 24.4913H7.35403ZM16.82 34.2973C19.6387 34.2973 21.7013 33.3411 23.7975 31.9556L22.6946 30.2871C20.7787 31.5535 19.1013 32.2973 16.82 32.2973V34.2973ZM22.246 31.1213V35.9833H24.246V31.1213H22.246ZM27.3226 37.1733H26.3226V38.1733H27.3226V37.1733ZM27.3226 9.90533V8.90533H26.3226V9.90533H27.3226ZM32.0146 9.90533H33.0146V8.90533H32.0146V9.90533ZM32.0146 37.1733V38.1733H33.0146V37.1733H32.0146ZM28.3226 37.1733V9.90533H26.3226V37.1733H28.3226ZM27.3226 10.9053H32.0146V8.90533H27.3226V10.9053ZM31.0146 9.90533V37.1733H33.0146V9.90533H31.0146ZM32.0146 36.1733H27.3226V38.1733H32.0146V36.1733ZM50.5499 21.5333L49.6936 22.0498L49.9852 22.5333H50.5499V21.5333ZM50.5839 21.5333V22.5333H51.4404L51.572 21.687L50.5839 21.5333ZM51.0599 18.4733V17.4733H50.2034L50.0718 18.3196L51.0599 18.4733ZM55.0039 18.4733H56.0039V17.4733H55.0039V18.4733ZM55.0039 37.1733V38.1733H56.0039V37.1733H55.0039ZM51.0599 37.1733L50.0718 37.327L50.2034 38.1733H51.0599V37.1733ZM50.5839 34.1133L51.572 33.9596L51.4404 33.1133H50.5839V34.1133ZM50.5499 34.1133V33.1133H49.9852L49.6936 33.5968L50.5499 34.1133ZM44.2599 36.6493C40.6482 36.6493 36.8959 33.2772 36.8959 27.8573H34.8959C34.8959 34.2015 39.3716 38.6493 44.2599 38.6493V36.6493ZM36.8959 27.8573C36.8959 22.3695 40.6482 19.0313 44.2599 19.0313V17.0313C39.3716 17.0313 34.8959 21.4452 34.8959 27.8573H36.8959ZM44.2599 19.0313C46.6576 19.0313 48.5796 20.2029 49.6936 22.0498L51.4062 21.0168C49.9362 18.5798 47.3702 17.0313 44.2599 17.0313V19.0313ZM50.5499 22.5333H50.5839V20.5333H50.5499V22.5333ZM51.572 21.687L52.048 18.627L50.0718 18.3196L49.5958 21.3796L51.572 21.687ZM51.0599 19.4733H55.0039V17.4733H51.0599V19.4733ZM54.0039 18.4733V37.1733H56.0039V18.4733H54.0039ZM55.0039 36.1733H51.0599V38.1733H55.0039V36.1733ZM52.048 37.0196L51.572 33.9596L49.5958 34.267L50.0718 37.327L52.048 37.0196ZM50.5839 33.1133H50.5499V35.1133H50.5839V33.1133ZM49.6936 33.5968C48.5748 35.4518 46.6485 36.6493 44.2599 36.6493V38.6493C47.3792 38.6493 49.941 37.0589 51.4062 34.6298L49.6936 33.5968ZM39.6219 27.8233C39.6219 31.4996 42.0773 34.3653 45.5519 34.3653V32.3653C43.3825 32.3653 41.6219 30.607 41.6219 27.8233H39.6219ZM45.5519 34.3653C48.9719 34.3653 51.3799 31.5186 51.3799 27.8233H49.3799C49.3799 30.6561 47.6399 32.3653 45.5519 32.3653V34.3653ZM51.3799 27.8233C51.3799 24.1281 48.9719 21.2813 45.5519 21.2813V23.2813C47.6399 23.2813 49.3799 24.9906 49.3799 27.8233H51.3799ZM45.5519 21.2813C42.0773 21.2813 39.6219 24.147 39.6219 27.8233H41.6219C41.6219 25.0396 43.3825 23.2813 45.5519 23.2813V21.2813ZM72.3373 19.5273H73.3373V18.9885L72.8872 18.6922L72.3373 19.5273ZM72.3373 23.6413L71.7405 24.4438L73.3373 25.6311V23.6413H72.3373ZM67.2373 26.0213L66.9778 26.9871L66.9844 26.9888L67.2373 26.0213ZM59.2473 35.7453H58.2473V36.2599L58.666 36.5591L59.2473 35.7453ZM59.2473 31.2913L59.9116 30.5439L58.2473 29.0645V31.2913H59.2473ZM64.9593 29.2173L65.2442 28.2588L65.237 28.2566L65.2297 28.2546L64.9593 29.2173ZM66.5233 19.0313C68.562 19.0313 70.5992 19.5801 71.7873 20.3625L72.8872 18.6922C71.2873 17.6386 68.8365 17.0313 66.5233 17.0313V19.0313ZM71.3373 19.5273V23.6413H73.3373V19.5273H71.3373ZM72.934 22.8389C71.4218 21.7144 69.0325 20.9073 66.6933 20.9073V22.9073C68.638 22.9073 70.6007 23.5962 71.7405 24.4438L72.934 22.8389ZM66.6933 20.9073C65.6375 20.9073 64.6855 21.1019 63.9638 21.5606C63.1962 22.0485 62.7353 22.8143 62.7353 23.7433H64.7353C64.7353 23.5504 64.8013 23.3982 65.0367 23.2485C65.318 23.0697 65.845 22.9073 66.6933 22.9073V20.9073ZM62.7353 23.7433C62.7353 24.2264 62.8639 24.6778 63.1347 25.0768C63.3954 25.461 63.7519 25.7436 64.1285 25.9631C64.8526 26.385 65.8573 26.6861 66.9778 26.9871L67.4967 25.0556C66.3392 24.7446 65.5929 24.5017 65.1355 24.2351C64.9214 24.1103 64.8294 24.0125 64.7895 23.9537C64.7596 23.9096 64.7353 23.8553 64.7353 23.7433H62.7353ZM66.9844 26.9888C68.4991 27.3847 69.8905 27.7994 70.9118 28.5179C71.8562 29.1824 72.4933 30.1112 72.4933 31.6993H74.4933C74.4933 29.4115 73.4983 27.8923 72.0627 26.8822C70.704 25.9263 68.9674 25.4399 67.4901 25.0538L66.9844 26.9888ZM72.4933 31.6993C72.4933 33.2151 71.9127 34.4063 70.8578 35.242C69.777 36.0982 68.1077 36.6493 65.8433 36.6493V38.6493C68.4068 38.6493 70.5625 38.0274 72.0997 36.8097C73.6628 35.5714 74.4933 33.7875 74.4933 31.6993H72.4933ZM65.8433 36.6493C63.3984 36.6493 61.2983 35.9814 59.8285 34.9316L58.666 36.5591C60.5282 37.8892 63.0521 38.6493 65.8433 38.6493V36.6493ZM60.2473 35.7453V31.2913H58.2473V35.7453H60.2473ZM58.5829 32.0387C60.2633 33.5324 62.6339 34.7393 65.6393 34.7393V32.7393C63.2046 32.7393 61.2912 31.7702 59.9116 30.5439L58.5829 32.0387ZM65.6393 34.7393C66.796 34.7393 67.8284 34.5281 68.6064 34.0448C69.4285 33.5341 69.9373 32.7278 69.9373 31.7333H67.9373C67.9373 31.9628 67.851 32.1596 67.5511 32.3459C67.2071 32.5596 66.5906 32.7393 65.6393 32.7393V34.7393ZM69.9373 31.7333C69.9373 31.1998 69.7842 30.7134 69.4748 30.2932C69.1801 29.8928 68.7818 29.6043 68.3694 29.3801C67.5754 28.9483 66.4598 28.6202 65.2442 28.2588L64.6743 30.1759C65.9747 30.5625 66.8481 30.8294 67.4141 31.1371C67.6817 31.2826 67.8062 31.4 67.8642 31.4788C67.9076 31.5378 67.9373 31.6039 67.9373 31.7333H69.9373ZM65.2297 28.2546C63.7233 27.8314 62.4437 27.3703 61.5421 26.6806C60.7042 26.0396 60.1793 25.1944 60.1793 23.8453H58.1793C58.1793 25.8623 59.0313 27.278 60.3269 28.2691C61.5588 29.2114 63.1692 29.7532 64.6888 30.1801L65.2297 28.2546ZM60.1793 23.8453C60.1793 22.4568 60.7373 21.2894 61.7632 20.45C62.8052 19.5975 64.3989 19.0313 66.5233 19.0313V17.0313C64.0576 17.0313 61.9793 17.6891 60.4968 18.9021C58.9982 20.1282 58.1793 21.8678 58.1793 23.8453H60.1793ZM89.7025 19.5273H90.7025V18.9885L90.2525 18.6922L89.7025 19.5273ZM89.7025 23.6413L89.1058 24.4438L90.7025 25.6311V23.6413H89.7025ZM84.6025 26.0213L84.343 26.9871L84.3496 26.9888L84.6025 26.0213ZM76.6125 35.7453H75.6125V36.2599L76.0312 36.5591L76.6125 35.7453ZM76.6125 31.2913L77.2768 30.5439L75.6125 29.0645V31.2913H76.6125ZM82.3245 29.2173L82.6095 28.2588L82.6022 28.2566L82.5949 28.2546L82.3245 29.2173ZM83.8885 19.0313C85.9272 19.0313 87.9644 19.5801 89.1525 20.3625L90.2525 18.6922C88.6526 17.6386 86.2018 17.0313 83.8885 17.0313V19.0313ZM88.7025 19.5273V23.6413H90.7025V19.5273H88.7025ZM90.2992 22.8389C88.787 21.7144 86.3978 20.9073 84.0585 20.9073V22.9073C86.0032 22.9073 87.966 23.5962 89.1058 24.4438L90.2992 22.8389ZM84.0585 20.9073C83.0027 20.9073 82.0508 21.1019 81.3291 21.5606C80.5615 22.0485 80.1005 22.8143 80.1005 23.7433H82.1005C82.1005 23.5504 82.1665 23.3982 82.4019 23.2485C82.6832 23.0697 83.2103 22.9073 84.0585 22.9073V20.9073ZM80.1005 23.7433C80.1005 24.2264 80.2291 24.6778 80.4999 25.0768C80.7607 25.461 81.1171 25.7436 81.4938 25.9631C82.2178 26.385 83.2226 26.6861 84.343 26.9871L84.8619 25.0556C83.7044 24.7446 82.9582 24.5017 82.5007 24.2351C82.2866 24.1103 82.1947 24.0125 82.1548 23.9537C82.1248 23.9096 82.1005 23.8553 82.1005 23.7433H80.1005ZM84.3496 26.9888C85.8643 27.3847 87.2557 27.7994 88.2771 28.5179C89.2215 29.1824 89.8585 30.1112 89.8585 31.6993H91.8585C91.8585 29.4115 90.8635 27.8923 89.4279 26.8822C88.0692 25.9263 86.3327 25.4399 84.8554 25.0538L84.3496 26.9888ZM89.8585 31.6993C89.8585 33.2151 89.2779 34.4063 88.223 35.242C87.1422 36.0982 85.4729 36.6493 83.2085 36.6493V38.6493C85.772 38.6493 87.9278 38.0274 89.465 36.8097C91.0281 35.5714 91.8585 33.7875 91.8585 31.6993H89.8585ZM83.2085 36.6493C80.7636 36.6493 78.6635 35.9814 77.1937 34.9316L76.0312 36.5591C77.8935 37.8892 80.4173 38.6493 83.2085 38.6493V36.6493ZM77.6125 35.7453V31.2913H75.6125V35.7453H77.6125ZM75.9481 32.0387C77.6285 33.5324 79.9991 34.7393 83.0045 34.7393V32.7393C80.5698 32.7393 78.6565 31.7702 77.2768 30.5439L75.9481 32.0387ZM83.0045 34.7393C84.1612 34.7393 85.1936 34.5281 85.9717 34.0448C86.7937 33.5341 87.3025 32.7278 87.3025 31.7333H85.3025C85.3025 31.9628 85.2162 32.1596 84.9163 32.3459C84.5723 32.5596 83.9558 32.7393 83.0045 32.7393V34.7393ZM87.3025 31.7333C87.3025 31.1998 87.1494 30.7134 86.8401 30.2932C86.5453 29.8928 86.147 29.6043 85.7347 29.3801C84.9406 28.9483 83.8251 28.6202 82.6095 28.2588L82.0395 30.1759C83.3399 30.5625 84.2133 30.8294 84.7793 31.1371C85.0469 31.2826 85.1714 31.4 85.2294 31.4788C85.2728 31.5378 85.3025 31.6039 85.3025 31.7333H87.3025ZM82.5949 28.2546C81.0885 27.8314 79.809 27.3703 78.9073 26.6806C78.0694 26.0396 77.5445 25.1944 77.5445 23.8453H75.5445C75.5445 25.8623 76.3965 27.278 77.6922 28.2691C78.924 29.2114 80.5345 29.7532 82.0541 30.1801L82.5949 28.2546ZM77.5445 23.8453C77.5445 22.4568 78.1025 21.2894 79.1285 20.45C80.1704 19.5975 81.7641 19.0313 83.8885 19.0313V17.0313C81.4229 17.0313 79.3445 17.6891 77.862 18.9021C76.3634 20.1282 75.5445 21.8678 75.5445 23.8453H77.5445ZM95.1677 37.1733H94.1677V38.1733H95.1677V37.1733ZM95.1677 11.8433V10.8433H94.1677V11.8433H95.1677ZM99.9277 11.8433H100.928V10.8433H99.9277V11.8433ZM99.9277 32.7873H98.9277V33.7873H99.9277V32.7873ZM110.638 32.7873H111.638V31.7873H110.638V32.7873ZM110.638 37.1733V38.1733H111.638V37.1733H110.638ZM96.1677 37.1733V11.8433H94.1677V37.1733H96.1677ZM95.1677 12.8433H99.9277V10.8433H95.1677V12.8433ZM98.9277 11.8433V32.7873H100.928V11.8433H98.9277ZM99.9277 33.7873H110.638V31.7873H99.9277V33.7873ZM109.638 32.7873V37.1733H111.638V32.7873H109.638ZM110.638 36.1733H95.1677V38.1733H110.638V36.1733ZM113.916 37.1733H112.916V38.1733H113.916V37.1733ZM113.916 18.4733V17.4733H112.916V18.4733H113.916ZM118.608 18.4733H119.608V17.4733H118.608V18.4733ZM118.608 37.1733V38.1733H119.608V37.1733H118.608ZM114.916 37.1733V18.4733H112.916V37.1733H114.916ZM113.916 19.4733H118.608V17.4733H113.916V19.4733ZM117.608 18.4733V37.1733H119.608V18.4733H117.608ZM118.608 36.1733H113.916V38.1733H118.608V36.1733ZM114.61 12.7613C114.61 11.8601 115.31 11.1433 116.262 11.1433V9.14333C114.223 9.14333 112.61 10.7386 112.61 12.7613H114.61ZM116.262 11.1433C117.172 11.1433 117.88 11.8516 117.88 12.7613H119.88C119.88 10.747 118.277 9.14333 116.262 9.14333V11.1433ZM117.88 12.7613C117.88 13.654 117.189 14.3453 116.262 14.3453V16.3453C118.259 16.3453 119.88 14.7927 119.88 12.7613H117.88ZM116.262 14.3453C115.293 14.3453 114.61 13.6456 114.61 12.7613H112.61C112.61 14.801 114.24 16.3453 116.262 16.3453V14.3453ZM140.034 37.1733V38.1733H141.034V37.1733H140.034ZM135.342 37.1733H134.342V38.1733H135.342V37.1733ZM128.236 37.1733V38.1733H129.236V37.1733H128.236ZM123.544 37.1733H122.544V38.1733H123.544V37.1733ZM123.544 18.4733V17.4733H122.544V18.4733H123.544ZM127.182 18.4733L128.164 18.2868L128.01 17.4733H127.182V18.4733ZM127.692 21.1593L126.709 21.3459L126.864 22.1593H127.692V21.1593ZM127.794 21.1593V22.1593H128.347L128.641 21.6908L127.794 21.1593ZM133.438 19.0313C135.266 19.0313 136.639 19.5983 137.555 20.5237C138.471 21.4505 139.034 22.8433 139.034 24.6953H141.034C141.034 22.4334 140.338 20.4941 138.977 19.1174C137.614 17.7394 135.689 17.0313 133.438 17.0313V19.0313ZM139.034 24.6953V37.1733H141.034V24.6953H139.034ZM140.034 36.1733H135.342V38.1733H140.034V36.1733ZM136.342 37.1733V26.1233H134.342V37.1733H136.342ZM136.342 26.1233C136.342 24.7032 136.026 23.4649 135.224 22.5792C134.405 21.6741 133.242 21.3153 131.942 21.3153V23.3153C132.886 23.3153 133.422 23.5686 133.742 23.9215C134.079 24.2937 134.342 24.9595 134.342 26.1233H136.342ZM131.942 21.3153C129.26 21.3153 127.236 23.2808 127.236 25.9873H129.236C129.236 24.4098 130.34 23.3153 131.942 23.3153V21.3153ZM127.236 25.9873V37.1733H129.236V25.9873H127.236ZM128.236 36.1733H123.544V38.1733H128.236V36.1733ZM124.544 37.1733V18.4733H122.544V37.1733H124.544ZM123.544 19.4733H127.182V17.4733H123.544V19.4733ZM126.199 18.6599L126.709 21.3459L128.674 20.9728L128.164 18.2868L126.199 18.6599ZM127.692 22.1593H127.794V20.1593H127.692V22.1593ZM128.641 21.6908C129.571 20.2078 131.243 19.0313 133.438 19.0313V17.0313C130.464 17.0313 128.192 18.6429 126.947 20.6278L128.641 21.6908ZM162.372 18.4733L163.128 19.1282L164.562 17.4733H162.372V18.4733ZM154.654 27.3813L153.899 26.7265L153.349 27.3607L153.878 28.0119L154.654 27.3813ZM162.61 37.1733V38.1733H164.711L163.387 36.5427L162.61 37.1733ZM156.796 37.1733L156.014 37.7966L156.315 38.1733H156.796V37.1733ZM149.452 27.9593L150.234 27.336L148.452 25.1003V27.9593H149.452ZM149.452 37.1733V38.1733H150.452V37.1733H149.452ZM144.76 37.1733H143.76V38.1733H144.76V37.1733ZM144.76 9.90533V8.90533H143.76V9.90533H144.76ZM149.452 9.90533H150.452V8.90533H149.452V9.90533ZM149.452 27.1093H148.452V29.8483L150.217 27.7537L149.452 27.1093ZM156.728 18.4733V17.4733H156.263L155.964 17.829L156.728 18.4733ZM161.617 17.8185L153.899 26.7265L155.41 28.0362L163.128 19.1282L161.617 17.8185ZM153.878 28.0119L161.834 37.8039L163.387 36.5427L155.431 26.7507L153.878 28.0119ZM162.61 36.1733H156.796V38.1733H162.61V36.1733ZM157.578 36.55L150.234 27.336L148.67 28.5826L156.014 37.7966L157.578 36.55ZM148.452 27.9593V37.1733H150.452V27.9593H148.452ZM149.452 36.1733H144.76V38.1733H149.452V36.1733ZM145.76 37.1733V9.90533H143.76V37.1733H145.76ZM144.76 10.9053H149.452V8.90533H144.76V10.9053ZM148.452 9.90533V27.1093H150.452V9.90533H148.452ZM150.217 27.7537L157.493 19.1177L155.964 17.829L148.688 26.465L150.217 27.7537ZM156.728 19.4733H162.372V17.4733H156.728V19.4733Z" fill="white"/>
</svg>
